<svg width="20" height="20" viewBox="0 0 20 20" fill="none" xmlns="http://www.w3.org/2000/svg">
<path fill-rule="evenodd" clip-rule="evenodd" d="M2.92816 12.5164C2.92816 10.6252 4.45961 9.09198 6.35368 9.09198H13.2005C15.0923 9.09198 16.626 10.6247 16.626 12.5164C16.626 14.4076 15.0946 15.9408 13.2005 15.9408H6.35368C4.46185 15.9408 2.92816 14.4081 2.92816 12.5164V12.5164ZM5.98344 12.7976C6.00239 12.7733 6.05701 12.7185 6.13807 12.6615C6.26435 12.5729 6.4021 12.5202 6.5494 12.5162H6.52456C6.67378 12.5202 6.81152 12.5728 6.93684 12.6612C7.01694 12.7175 7.07028 12.7717 7.08844 12.7952L7.36728 13.1567L8.0904 12.5992L7.81156 12.2376C7.74166 12.1469 7.62604 12.0296 7.46297 11.9148C7.20006 11.7294 6.89383 11.6127 6.54922 11.6034H6.52438C6.18185 11.6127 5.87656 11.7292 5.61316 11.9143C5.45025 12.0286 5.33432 12.1452 5.26394 12.2352L4.98271 12.5949L5.70233 13.1574L5.98344 12.7976ZM12.3757 12.7976C12.3946 12.7733 12.4493 12.7185 12.5303 12.6615C12.6564 12.5729 12.7943 12.5202 12.9415 12.5162H12.9168C13.0659 12.5202 13.2038 12.5728 13.3291 12.6612C13.4092 12.7175 13.4625 12.7717 13.4807 12.7952L13.7595 13.1567L14.4826 12.5992L14.2038 12.2376C14.1339 12.1469 14.0181 12.0296 13.8552 11.9148C13.5923 11.7294 13.2861 11.6127 12.9415 11.6034H12.9166C12.5741 11.6127 12.2688 11.7292 12.0054 11.9143C11.8425 12.0286 11.7264 12.1452 11.6562 12.2352L11.375 12.5949L12.0944 13.1574L12.3757 12.7976Z" fill="black"/>
<path fill-rule="evenodd" clip-rule="evenodd" d="M9.77701 3.38464C14.6703 3.38464 16.9414 5.35115 17.9956 7.17661V1.10153H18.9087V14.7992C18.9087 14.7992 18.9087 19.3651 9.77693 19.3651C0.645141 19.3651 0.645142 14.7992 0.645142 14.7992V1.10153H1.55824V7.17661C2.61243 5.35119 4.88376 3.38464 9.77685 3.38464H9.77701ZM1.5584 10.2335V14.7994C1.5584 14.793 1.55999 14.8169 1.56716 14.8664C1.58181 14.9696 1.60968 15.0903 1.65427 15.2241C1.78899 15.6282 2.03646 16.0405 2.43251 16.4366C3.66921 17.6733 6.00564 18.4521 9.77707 18.4521C13.5485 18.4521 15.8848 17.6733 17.1216 16.4366C17.5177 16.0405 17.7651 15.6282 17.8999 15.2241C17.9445 15.0903 17.9723 14.9696 17.987 14.8664C17.9941 14.8169 17.9957 14.793 17.9957 14.7994V10.2335C17.9957 10.208 17.9926 10.1365 17.9819 10.0258C17.9631 9.82803 17.9287 9.60429 17.8747 9.36144C17.7195 8.66298 17.4401 7.96436 17.0076 7.31559C15.7556 5.43763 13.4758 4.29774 9.77719 4.29774C6.07853 4.29774 3.79872 5.43763 2.54677 7.31559C2.11427 7.96436 1.83494 8.66298 1.67966 9.36144C1.62567 9.60429 1.59127 9.82802 1.57248 10.0258C1.56229 10.1312 1.55863 10.2335 1.55863 10.2335H1.5584ZM1.5584 1.10169C1.5584 0.849445 1.35409 0.645142 1.10185 0.645142C0.849767 0.645142 0.645305 0.849453 0.645305 1.10169H1.5584ZM18.9088 1.10169C18.9088 0.849445 18.7043 0.645142 18.4522 0.645142C18.2 0.645142 17.9957 0.849453 17.9957 1.10169H18.9088Z" fill="black"/>
</svg>
