<svg width="17" height="16" viewBox="0 0 17 16" fill="none" xmlns="http://www.w3.org/2000/svg">
<path d="M16.0302 0.148118C15.9488 0.0770213 15.8497 0.0291619 15.7434 0.0096826C15.6371 -0.00965671 15.5275 8.26687e-05 15.4264 0.0379264L0.617246 5.53836H0.617107C0.463367 5.59665 0.340237 5.71575 0.27693 5.86768C0.213766 6.01948 0.21571 6.19075 0.282635 6.34101C0.349418 6.49141 0.475191 6.60758 0.630323 6.66226L7.26803 8.96295L9.56871 15.6007C9.62339 15.7558 9.73957 15.8816 9.88997 15.9483C10.0402 16.0153 10.2115 16.0172 10.3633 15.9539C10.5152 15.8906 10.6343 15.7676 10.6926 15.6137L16.193 0.804623C16.2352 0.691369 16.2423 0.568101 16.2132 0.45095C16.1841 0.3338 16.1201 0.228062 16.03 0.147784L16.0302 0.148118ZM13.2754 2.10944L7.58082 7.80399L2.6004 6.07625L13.2754 2.10944ZM14.1216 2.95564L10.1548 13.6306L8.4271 8.65019L14.1216 2.95564Z" fill="black"/>
</svg>
